<mxfile host="65bd71144e">
    <diagram id="6lfZCRsaMVTroOEcEbZn" name="Page-1">
        <mxGraphModel dx="863" dy="489" grid="1" gridSize="10" guides="1" tooltips="1" connect="1" arrows="1" fold="1" page="1" pageScale="1" pageWidth="850" pageHeight="1100" math="0" shadow="0">
            <root>
                <mxCell id="0"/>
                <mxCell id="1" parent="0"/>
                <mxCell id="2" value="" style="whiteSpace=wrap;html=1;aspect=fixed;strokeColor=#E4D3F0;" vertex="1" parent="1">
                    <mxGeometry x="330" y="320" width="110" height="110" as="geometry"/>
                </mxCell>
                <mxCell id="4" value="this is not for sing this extension" style="ellipse;whiteSpace=wrap;html=1;fillColor=#008a00;fontColor=#ffffff;strokeColor=#005700;" vertex="1" parent="1">
                    <mxGeometry x="80" y="570" width="230" height="110" as="geometry"/>
                </mxCell>
                <mxCell id="5" value="" style="edgeStyle=none;orthogonalLoop=1;jettySize=auto;html=1;entryX=0.454;entryY=-0.021;entryDx=0;entryDy=0;entryPerimeter=0;" edge="1" parent="1" source="2" target="4">
                    <mxGeometry width="80" relative="1" as="geometry">
                        <mxPoint x="440" y="540" as="sourcePoint"/>
                        <mxPoint x="520" y="540" as="targetPoint"/>
                        <Array as="points"/>
                    </mxGeometry>
                </mxCell>
                <mxCell id="6" value="d" style="edgeStyle=none;orthogonalLoop=1;jettySize=auto;html=1;" edge="1" parent="1">
                    <mxGeometry width="80" relative="1" as="geometry">
                        <mxPoint x="390" y="640" as="sourcePoint"/>
                        <mxPoint x="590" y="620" as="targetPoint"/>
                        <Array as="points">
                            <mxPoint x="400" y="430"/>
                        </Array>
                    </mxGeometry>
                </mxCell>
                <mxCell id="7" value="d" style="whiteSpace=wrap;html=1;strokeColor=#E4D3F0;" vertex="1" parent="1">
                    <mxGeometry x="370" y="630" width="120" height="60" as="geometry"/>
                </mxCell>
                <mxCell id="8" value="" style="whiteSpace=wrap;html=1;strokeColor=#E4D3F0;" vertex="1" parent="1">
                    <mxGeometry x="570" y="600" width="120" height="60" as="geometry"/>
                </mxCell>
            </root>
        </mxGraphModel>
    </diagram>
</mxfile>